<svg xmlns="http://www.w3.org/2000/svg">
  <defs>
    <!-- moon -->
    <symbol id="moon" fill="currentColor" xmlns="http://www.w3.org/2000/svg" viewBox="0 0 24 24">
      <path d="M21.64,13a1,1,0,0,0-1.05-.14,8.05,8.05,0,0,1-3.37.73A8.15,8.15,0,0,1,9.08,5.49a8.59,8.59,0,0,1,.25-2A1,1,0,0,0,8,2.36,10.14,10.14,0,1,0,22,14.05,1,1,0,0,0,21.64,13Zm-9.5,6.69A8.14,8.14,0,0,1,7.08,5.22v.27A10.15,10.15,0,0,0,17.22,15.63a9.79,9.79,0,0,0,2.1-.22A8.11,8.11,0,0,1,12.14,19.73Z" />
    </symbol>
    <!-- sun -->
    <symbol id="sun" fill="currentColor" xmlns="http://www.w3.org/2000/svg" viewBox="0 0 24 24">
      <path d="M5.64,17l-.71.71a1,1,0,0,0,0,1.41,1,1,0,0,0,1.41,0l.71-.71A1,1,0,0,0,5.64,17ZM5,12a1,1,0,0,0-1-1H3a1,1,0,0,0,0,2H4A1,1,0,0,0,5,12Zm7-7a1,1,0,0,0,1-1V3a1,1,0,0,0-2,0V4A1,1,0,0,0,12,5ZM5.64,7.05a1,1,0,0,0,.7.29,1,1,0,0,0,.71-.29,1,1,0,0,0,0-1.41l-.71-.71A1,1,0,0,0,4.93,6.34Zm12,.29a1,1,0,0,0,.7-.29l.71-.71a1,1,0,1,0-1.41-1.41L17,5.64a1,1,0,0,0,0,1.41A1,1,0,0,0,17.66,7.34ZM21,11H20a1,1,0,0,0,0,2h1a1,1,0,0,0,0-2Zm-9,8a1,1,0,0,0-1,1v1a1,1,0,0,0,2,0V20A1,1,0,0,0,12,19ZM18.36,17A1,1,0,0,0,17,18.36l.71.71a1,1,0,0,0,1.41,0,1,1,0,0,0,0-1.41ZM12,6.5A5.5,5.5,0,1,0,17.5,12,5.51,5.51,0,0,0,12,6.5Zm0,9A3.5,3.5,0,1,1,15.5,12,3.5,3.5,0,0,1,12,15.5Z" />
    </symbol>
    <!-- computer -->
    <symbol id="computer" fill="none" stroke="currentColor" stroke-width="2" stroke-linecap="round" stroke-linejoin="round" className="size-5" xmlns="http://www.w3.org/2000/svg" viewBox="0 0 24 24">
      <path d="M12 17v4" />
      <path d="m15.2 4.9-.9-.4" />
      <path d="m15.2 7.1-.9.4" />
      <path d="m16.9 3.2-.4-.9" />
      <path d="m16.9 8.8-.4.9" />
      <path d="m19.5 2.3-.4.9" />
      <path d="m19.5 9.7-.4-.9" />
      <path d="m21.7 4.5-.9.4" />
      <path d="m21.7 7.5-.9-.4" />
      <path d="M22 13v2a2 2 0 0 1-2 2H4a2 2 0 0 1-2-2V5a2 2 0 0 1 2-2h7" />
      <path d="M8 21h8" />
      <circle cx="18" cy="6" r="3" />
    </symbol>
    <!-- search -->
    <symbol
      id="search"
      viewBox="0 0 16 16"
      fill="currentColor"
    >
      <path
        fill-rule="even-odd"
        d="M9.965 11.026a5 5 0 1 1 1.06-1.06l2.755 2.754a.75.75 0 1 1-1.06 1.06l-2.755-2.754ZM10.5 7a3.5 3.5 0 1 1-7 0 3.5 3.5 0 0 1 7 0Z"
        clipRule="even-odd"
      />
    </symbol>
  <!--portfeil-->
  <symbol id="portfeil" viewBox="0 0 24 24" fill="none">
    <path fill-rule="evenodd" clip-rule="evenodd" d="M9 6C9 5.44772 9.44772 5 10 5H14C14.5523 5 15 5.44772 15 6H9ZM7 6C7 4.34315 8.34315 3 10 3H14C15.6569 3 17 4.34315 17 6H19C20.6569 6 22 7.34315 22 9V11V18C22 19.6569 20.6569 21 19 21H5C3.34315 21 2 19.6569 2 18V11V9C2 7.34315 3.34315 6 5 6H7ZM16 8H19C19.5523 8 20 8.44772 20 9V10H4V9C4 8.44772 4.44772 8 5 8H8H16ZM20 18V12H4V18C4 18.5523 4.44772 19 5 19H19C19.5523 19 20 18.5523 20 18Z" fill="currentColor" />
  </symbol>
  <!--profile-->
  <symbol id="profile" viewBox="0 0 24 24" fill="none">
    <path fill-rule="evenodd" clip-rule="evenodd" d="M14 7C14 8.10457 13.1046 9 12 9C10.8954 9 10 8.10457 10 7C10 5.89543 10.8954 5 12 5C13.1046 5 14 5.89543 14 7ZM16 7C16 9.20914 14.2091 11 12 11C9.79086 11 8 9.20914 8 7C8 4.79086 9.79086 3 12 3C14.2091 3 16 4.79086 16 7ZM7 19C7 16.2386 9.23858 14 12 14C14.7614 14 17 16.2386 17 19C17 19.5523 17.4477 20 18 20C18.5523 20 19 19.5523 19 19C19 15.134 15.866 12 12 12C8.13401 12 5 15.134 5 19C5 19.5523 5.44772 20 6 20C6.55228 20 7 19.5523 7 19Z" fill="currentColor"/>
  </symbol>
  </defs>
</svg>